<svg width="93" height="93" viewBox="0 0 93 93" fill="none" xmlns="http://www.w3.org/2000/svg">
<path d="M0.625 17.4375C0.625 8.15224 8.1526 0.625 17.4384 0.625H75.5665C84.8523 0.625 92.3799 8.15224 92.3799 17.4375V75.5625C92.3799 84.8478 84.8523 92.375 75.5665 92.375H17.4384C8.1526 92.375 0.625 84.8478 0.625 75.5625V17.4375Z" fill="#4AA9FF" stroke="white" stroke-width="1.25"/>
<path fill-rule="evenodd" clip-rule="evenodd" d="M75.5665 3.63281H17.4384C9.8139 3.63281 3.63301 9.81338 3.63301 17.4375V75.5625C3.63301 83.1866 9.8139 89.3672 17.4384 89.3672H75.5665C83.191 89.3672 89.3719 83.1866 89.3719 75.5625V17.4375C89.3719 9.81338 83.191 3.63281 75.5665 3.63281ZM17.4384 0C7.80745 0 0 7.80704 0 17.4375V75.5625C0 85.193 7.80745 93 17.4384 93H75.5665C85.1975 93 93.0049 85.193 93.0049 75.5625V17.4375C93.0049 7.80704 85.1975 0 75.5665 0H17.4384Z" fill="#4AA9FF"/>
<path d="M23.2515 23.2466H32.552V32.5466H41.8524V41.8466H51.1529V51.1466L41.8524 51.1466V60.4466H32.552V69.7466H23.2515V51.1466L32.552 51.1466V41.8466H23.2515V23.2466Z" fill="white"/>
<path d="M51.1529 60.4466V51.1466L60.4534 51.1466V60.4466H51.1529Z" fill="white"/>
<path d="M60.4534 60.4466H69.7539V69.7466H60.4534V60.4466Z" fill="white"/>
<path d="M51.1529 60.4466H41.8524V69.7466H51.1529L51.1529 60.4466Z" fill="white"/>
<path d="M60.4534 51.1466V41.8466H51.1529L51.1529 32.5466H41.8524V23.2466H60.4534V32.5466H69.7539V51.1466H60.4534Z" fill="white"/>
</svg>
